{
  "accessors": [
    {
      "bufferView": 2,
      "componentType": 5126,
      "count": 2752,
      "max": [
        0.9988741874694824,
        0.11145085841417313,
        0.9601224660873413
      ],
      "min": [
        -1.0450456142425537,
        0.0,
        -0.9400545954704285
      ],
      "type": "VEC3"
    },
    {
      "bufferView": 2,
      "byteOffset": 33024,
      "componentType": 5126,
      "count": 2752,
      "max": [
        0.9949089288711548,
        0.9945952892303467,
        0.9955145716667175
      ],
      "min": [
        -0.9949086904525757,
        -0.9945952892303467,
        -0.9949098229408264
      ],
      "type": "VEC3"
    },
    {
      "bufferView": 1,
      "componentType": 5126,
      "count": 2752,
      "max": [
        0.0,
        0.0
      ],
      "min": [
        0.0,
        0.0
      ],
      "type": "VEC2"
    },
    {
      "bufferView": 0,
      "componentType": 5125,
      "count": 9114,
      "type": "SCALAR"
    },
    {
      "bufferView": 2,
      "byteOffset": 66048,
      "componentType": 5126,
      "count": 32,
      "max": [
        0.9810038805007935,
        0.0,
        0.9425696134567261
      ],
      "min": [
        -1.0271753072738647,
        0.0,
        -0.9221842885017395
      ],
      "type": "VEC3"
    },
    {
      "bufferView": 2,
      "byteOffset": 66432,
      "componentType": 5126,
      "count": 32,
      "max": [
        0.11056701838970184,
        -0.9922763705253601,
        0.11369701474905014
      ],
      "min": [
        -0.11056983470916748,
        -0.9945952892303467,
        -0.11056967824697495
      ],
      "type": "VEC3"
    },
    {
      "bufferView": 1,
      "byteOffset": 22016,
      "componentType": 5126,
      "count": 32,
      "max": [
        0.0,
        0.0
      ],
      "min": [
        0.0,
        0.0
      ],
      "type": "VEC2"
    },
    {
      "bufferView": 0,
      "byteOffset": 36456,
      "componentType": 5125,
      "count": 90,
      "type": "SCALAR"
    },
    {
      "bufferView": 2,
      "byteOffset": 66816,
      "componentType": 5126,
      "count": 384,
      "max": [
        0.9988741874694824,
        0.09254621714353561,
        0.9601224660873413
      ],
      "min": [
        -1.0450456142425537,
        0.01890464872121811,
        -0.9400545954704285
      ],
      "type": "VEC3"
    },
    {
      "bufferView": 2,
      "byteOffset": 71424,
      "componentType": 5126,
      "count": 384,
      "max": [
        0.9998666048049927,
        0.09722656011581421,
        0.9955145716667175
      ],
      "min": [
        -0.9998666048049927,
        -0.09722185879945755,
        -0.9998664259910583
      ],
      "type": "VEC3"
    },
    {
      "bufferView": 1,
      "byteOffset": 22272,
      "componentType": 5126,
      "count": 384,
      "max": [
        0.0,
        0.0
      ],
      "min": [
        0.0,
        0.0
      ],
      "type": "VEC2"
    },
    {
      "bufferView": 0,
      "byteOffset": 36816,
      "componentType": 5125,
      "count": 1152,
      "type": "SCALAR"
    },
    {
      "bufferView": 2,
      "byteOffset": 76032,
      "componentType": 5126,
      "count": 27,
      "max": [
        1.2189877033233643,
        0.10438355058431625,
        0.4266580045223236
      ],
      "min": [
        0.9373608827590942,
        0.01424744725227356,
        -0.3784742057323456
      ],
      "type": "VEC3"
    },
    {
      "bufferView": 2,
      "byteOffset": 76356,
      "componentType": 5126,
      "count": 27,
      "max": [
        0.6171539425849915,
        1.0,
        0.7868425250053406
      ],
      "min": [
        -0.02804212085902691,
        -1.0,
        -0.8198301792144775
      ],
      "type": "VEC3"
    },
    {
      "bufferView": 1,
      "byteOffset": 25344,
      "componentType": 5126,
      "count": 27,
      "max": [
        0.875,
        1.0
      ],
      "min": [
        0.125,
        0.0
      ],
      "type": "VEC2"
    },
    {
      "bufferView": 0,
      "byteOffset": 41424,
      "componentType": 5125,
      "count": 39,
      "type": "SCALAR"
    },
    {
      "bufferView": 2,
      "byteOffset": 76680,
      "componentType": 5126,
      "count": 1184,
      "max": [
        2.1191205978393555,
        0.14085836708545685,
        0.4266580045223236
      ],
      "min": [
        0.9373608827590942,
        -0.024044465273618698,
        -0.3784742057323456
      ],
      "type": "VEC3"
    },
    {
      "bufferView": 2,
      "byteOffset": 90888,
      "componentType": 5126,
      "count": 1184,
      "max": [
        0.9986869096755981,
        1.0,
        1.0
      ],
      "min": [
        -1.0,
        -1.0,
        -1.0
      ],
      "type": "VEC3"
    },
    {
      "bufferView": 1,
      "byteOffset": 25560,
      "componentType": 5126,
      "count": 1184,
      "max": [
        0.8750002980232239,
        1.000000238418579
      ],
      "min": [
        0.11213730275630951,
        0.0
      ],
      "type": "VEC2"
    },
    {
      "bufferView": 0,
      "byteOffset": 41580,
      "componentType": 5125,
      "count": 3570,
      "type": "SCALAR"
    },
    {
      "bufferView": 2,
      "byteOffset": 105096,
      "componentType": 5126,
      "count": 65532,
      "max": [
        -1.786656866897829e-08,
        0.9990543723106384,
        1.2895907275378704e-07
      ],
      "min": [
        -0.9204995632171631,
        -0.9990543723106384,
        -0.9927906394004822
      ],
      "type": "VEC3"
    },
    {
      "bufferView": 2,
      "byteOffset": 891480,
      "componentType": 5126,
      "count": 65532,
      "max": [
        0.07586360722780228,
        0.996204674243927,
        0.005315071903169155
      ],
      "min": [
        -0.9254693388938904,
        -0.996204674243927,
        -0.9999150037765503
      ],
      "type": "VEC3"
    },
    {
      "bufferView": 1,
      "byteOffset": 35032,
      "componentType": 5126,
      "count": 65532,
      "max": [
        0.9333334565162659,
        1.0000001192092896
      ],
      "min": [
        0.7444443702697754,
        0.0
      ],
      "type": "VEC2"
    },
    {
      "bufferView": 0,
      "byteOffset": 55860,
      "componentType": 5125,
      "count": 98298,
      "type": "SCALAR"
    },
    {
      "bufferView": 2,
      "byteOffset": 1677864,
      "componentType": 5126,
      "count": 65532,
      "max": [
        0.9873504638671875,
        0.9990543723106384,
        0.6112221479415894
      ],
      "min": [
        -0.9927902817726135,
        -0.9990543723106384,
        -0.4352104365825653
      ],
      "type": "VEC3"
    },
    {
      "bufferView": 2,
      "byteOffset": 2464248,
      "componentType": 5126,
      "count": 65532,
      "max": [
        0.993982195854187,
        0.996204674243927,
        0.612165629863739
      ],
      "min": [
        -0.9999151229858398,
        -0.996204674243927,
        -0.4344044625759125
      ],
      "type": "VEC3"
    },
    {
      "bufferView": 1,
      "byteOffset": 559288,
      "componentType": 5126,
      "count": 65532,
      "max": [
        1.0000001192092896,
        1.0000001192092896
      ],
      "min": [
        0.0,
        0.0
      ],
      "type": "VEC2"
    },
    {
      "bufferView": 0,
      "byteOffset": 449052,
      "componentType": 5125,
      "count": 98298,
      "type": "SCALAR"
    },
    {
      "bufferView": 2,
      "byteOffset": 3250632,
      "componentType": 5126,
      "count": 65532,
      "max": [
        0.9927891492843628,
        0.9990543723106384,
        0.1690833866596222
      ],
      "min": [
        -3.759050741791725e-07,
        -0.9990543723106384,
        -0.9927906394004822
      ],
      "type": "VEC3"
    },
    {
      "bufferView": 2,
      "byteOffset": 4037016,
      "componentType": 5126,
      "count": 65532,
      "max": [
        0.9999149441719055,
        0.996204674243927,
        0.16567645967006683
      ],
      "min": [
        -0.07585664093494415,
        -0.996204674243927,
        -0.9999149441719055
      ],
      "type": "VEC3"
    },
    {
      "bufferView": 1,
      "byteOffset": 1083544,
      "componentType": 5126,
      "count": 65532,
      "max": [
        0.7444445490837097,
        1.0000001192092896
      ],
      "min": [
        0.4666666090488434,
        0.0
      ],
      "type": "VEC2"
    },
    {
      "bufferView": 0,
      "byteOffset": 842244,
      "componentType": 5125,
      "count": 98298,
      "type": "SCALAR"
    },
    {
      "bufferView": 2,
      "byteOffset": 4823400,
      "componentType": 5126,
      "count": 65532,
      "max": [
        0.8751671314239502,
        0.9990543723106384,
        0.9329169392585754
      ],
      "min": [
        -6.110803951742128e-08,
        -0.9990543723106384,
        -0.8971735239028931
      ],
      "type": "VEC3"
    },
    {
      "bufferView": 2,
      "byteOffset": 5609784,
      "componentType": 5126,
      "count": 65532,
      "max": [
        0.8774481415748596,
        0.996204674243927,
        0.9381217360496521
      ],
      "min": [
        -0.02137363702058792,
        -0.996204674243927,
        -0.8982897400856018
      ],
      "type": "VEC3"
    },
    {
      "bufferView": 1,
      "byteOffset": 1607800,
      "componentType": 5126,
      "count": 65532,
      "max": [
        0.7111111879348755,
        1.0000001192092896
      ],
      "min": [
        0.29999998211860657,
        0.0
      ],
      "type": "VEC2"
    },
    {
      "bufferView": 0,
      "byteOffset": 1235436,
      "componentType": 5125,
      "count": 98298,
      "type": "SCALAR"
    },
    {
      "bufferView": 2,
      "byteOffset": 6396168,
      "componentType": 5126,
      "count": 65532,
      "max": [
        0.4038040041923523,
        0.9990543723106384,
        0.9927896857261658
      ],
      "min": [
        -0.6896495819091797,
        -0.9990543723106384,
        8.650386007502675e-08
      ],
      "type": "VEC3"
    },
    {
      "bufferView": 2,
      "byteOffset": 7182552,
      "componentType": 5126,
      "count": 65532,
      "max": [
        0.4027197062969208,
        0.996204674243927,
        0.9999150037765503
      ],
      "min": [
        -0.6914628148078918,
        -0.996204674243927,
        0.04694871976971626
      ],
      "type": "VEC3"
    },
    {
      "bufferView": 1,
      "byteOffset": 2132056,
      "componentType": 5126,
      "count": 65532,
      "max": [
        0.3111111521720886,
        1.0000001192092896
      ],
      "min": [
        0.1111111268401146,
        0.0
      ],
      "type": "VEC2"
    },
    {
      "bufferView": 0,
      "byteOffset": 1628628,
      "componentType": 5125,
      "count": 98298,
      "type": "SCALAR"
    },
    {
      "bufferView": 2,
      "byteOffset": 7968936,
      "componentType": 5126,
      "count": 29460,
      "max": [
        -1.786656866897829e-08,
        0.9990543723106384,
        0.714153528213501
      ],
      "min": [
        -0.9447904229164124,
        -0.9990543723106384,
        8.650386007502675e-08
      ],
      "type": "VEC3"
    },
    {
      "bufferView": 2,
      "byteOffset": 8322456,
      "componentType": 5126,
      "count": 29460,
      "max": [
        -0.04254761338233948,
        0.996204674243927,
        0.7162469625473022
      ],
      "min": [
        -0.949626088142395,
        -0.996204674243927,
        -0.026686107739806175
      ],
      "type": "VEC3"
    },
    {
      "bufferView": 1,
      "byteOffset": 2656312,
      "componentType": 5126,
      "count": 29460,
      "max": [
        0.12222229689359665,
        1.0000001192092896
      ],
      "min": [
        0.03333333134651184,
        0.0
      ],
      "type": "VEC2"
    },
    {
      "bufferView": 0,
      "byteOffset": 2021820,
      "componentType": 5125,
      "count": 44190,
      "type": "SCALAR"
    },
    {
      "bufferView": 3,
      "componentType": 5126,
      "count": 60,
      "max": [
        2.0
      ],
      "min": [
        0.03333333507180214
      ],
      "type": "SCALAR"
    },
    {
      "bufferView": 5,
      "componentType": 5126,
      "count": 60,
      "max": [
        0.0,
        0.0,
        0.04847469553351402,
        0.9999980926513672
      ],
      "min": [
        -0.0011615215335041285,
        -0.004423254169523716,
        -0.05060013383626938,
        0.9987189769744873
      ],
      "type": "VEC4"
    },
    {
      "bufferView": 3,
      "byteOffset": 240,
      "componentType": 5126,
      "count": 43,
      "max": [
        2.0
      ],
      "min": [
        0.03333333507180214
      ],
      "type": "SCALAR"
    },
    {
      "bufferView": 4,
      "componentType": 5126,
      "count": 43,
      "max": [
        2.6821272373199463,
        2.6821272373199463,
        2.6821272373199463
      ],
      "min": [
        2.682126760482788,
        2.682126760482788,
        2.682126760482788
      ],
      "type": "VEC3"
    },
    {
      "bufferView": 3,
      "byteOffset": 412,
      "componentType": 5126,
      "count": 60,
      "max": [
        2.0
      ],
      "min": [
        0.03333333507180214
      ],
      "type": "SCALAR"
    },
    {
      "bufferView": 4,
      "byteOffset": 516,
      "componentType": 5126,
      "count": 60,
      "max": [
        -1.3674328327178955,
        5.307741165161133,
        -0.021147847175598145
      ],
      "min": [
        -1.3686312437057495,
        0.712689995765686,
        -0.02234617993235588
      ],
      "type": "VEC3"
    },
    {
      "bufferView": 3,
      "byteOffset": 652,
      "componentType": 5126,
      "count": 60,
      "max": [
        2.0
      ],
      "min": [
        0.03333333507180214
      ],
      "type": "SCALAR"
    },
    {
      "bufferView": 5,
      "byteOffset": 960,
      "componentType": 5126,
      "count": 60,
      "max": [
        5.520413651538547e-06,
        5.520413651538547e-06,
        4.937811354466248e-06,
        1.0
      ],
      "min": [
        -4.937860012432793e-06,
        -4.937860012432793e-06,
        -5.520474587683566e-06,
        1.0
      ],
      "type": "VEC4"
    },
    {
      "bufferView": 3,
      "byteOffset": 892,
      "componentType": 5126,
      "count": 60,
      "max": [
        2.0
      ],
      "min": [
        0.03333333507180214
      ],
      "type": "SCALAR"
    },
    {
      "bufferView": 4,
      "byteOffset": 1236,
      "componentType": 5126,
      "count": 60,
      "max": [
        0.522809624671936,
        0.522809624671936,
        0.522809624671936
      ],
      "min": [
        0.521611213684082,
        0.521611213684082,
        0.521611213684082
      ],
      "type": "VEC3"
    }
  ],
  "animations": [
    {
      "channels": [
        {
          "sampler": 0,
          "target": {
            "node": 3,
            "path": "rotation"
          }
        },
        {
          "sampler": 1,
          "target": {
            "node": 3,
            "path": "scale"
          }
        },
        {
          "sampler": 2,
          "target": {
            "node": 9,
            "path": "translation"
          }
        },
        {
          "sampler": 3,
          "target": {
            "node": 9,
            "path": "rotation"
          }
        },
        {
          "sampler": 4,
          "target": {
            "node": 9,
            "path": "scale"
          }
        }
      ],
      "name": "Animation",
      "samplers": [
        {
          "input": 44,
          "interpolation": "LINEAR",
          "output": 45
        },
        {
          "input": 46,
          "interpolation": "LINEAR",
          "output": 47
        },
        {
          "input": 48,
          "interpolation": "LINEAR",
          "output": 49
        },
        {
          "input": 50,
          "interpolation": "LINEAR",
          "output": 51
        },
        {
          "input": 52,
          "interpolation": "LINEAR",
          "output": 53
        }
      ]
    }
  ],
  "asset": {
    "extras": {
      "author": "TheDesigner (https://sketchfab.com/Coolhitz)",
      "license": "CC-BY-4.0 (http://creativecommons.org/licenses/by/4.0/)",
      "source": "https://sketchfab.com/3d-models/ping-pong-ffffdd021dde4159a86bdb720a77fb1a",
      "title": "Ping Pong"
    },
    "generator": "Sketchfab-12.74.0",
    "version": "2.0"
  },
  "bufferViews": [
    {
      "buffer": 0,
      "byteLength": 2198580,
      "name": "floatBufferViews",
      "target": 34963
    },
    {
      "buffer": 0,
      "byteLength": 2891992,
      "byteOffset": 2198580,
      "byteStride": 8,
      "name": "floatBufferViews",
      "target": 34962
    },
    {
      "buffer": 0,
      "byteLength": 8675976,
      "byteOffset": 5090572,
      "byteStride": 12,
      "name": "floatBufferViews",
      "target": 34962
    },
    {
      "buffer": 0,
      "byteLength": 1132,
      "byteOffset": 13766548,
      "name": "floatBufferViews"
    },
    {
      "buffer": 0,
      "byteLength": 1956,
      "byteOffset": 13767680,
      "byteStride": 12,
      "name": "floatBufferViews"
    },
    {
      "buffer": 0,
      "byteLength": 1920,
      "byteOffset": 13769636,
      "byteStride": 16,
      "name": "floatBufferViews"
    }
  ],
  "buffers": [
    {
      "byteLength": 13771556,
      "uri": "scene.bin"
    }
  ],
  "materials": [
    {
      "doubleSided": true,
      "name": "Material.001",
      "pbrMetallicRoughness": {
        "baseColorFactor": [
          1.0,
          0.0,
          0.0,
          1.0
        ],
        "metallicFactor": 0.0,
        "roughnessFactor": 0.5
      }
    },
    {
      "doubleSided": true,
      "name": "Material.002",
      "pbrMetallicRoughness": {
        "baseColorFactor": [
          0.0,
          0.0,
          0.0,
          1.0
        ],
        "metallicFactor": 0.0,
        "roughnessFactor": 0.5
      }
    },
    {
      "doubleSided": true,
      "name": "Material.004",
      "pbrMetallicRoughness": {
        "baseColorFactor": [
          0.00208477999409936,
          0.0014447602841483177,
          0.32165438416540254,
          1.0
        ],
        "metallicFactor": 0.0,
        "roughnessFactor": 0.5
      }
    },
    {
      "doubleSided": true,
      "name": "Material",
      "pbrMetallicRoughness": {
        "baseColorFactor": [
          1.0,
          0.4851499400560704,
          0.230740048524349,
          1.0
        ],
        "metallicFactor": 0.0,
        "roughnessFactor": 0.4
      }
    },
    {
      "doubleSided": true,
      "name": "Material.005",
      "pbrMetallicRoughness": {
        "baseColorFactor": [
          0.13536274764917863,
          0.13536274764917863,
          0.13536274764917863,
          1.0
        ],
        "metallicFactor": 0.0,
        "roughnessFactor": 0.5
      }
    },
    {
      "doubleSided": true,
      "name": "Material.006",
      "pbrMetallicRoughness": {
        "baseColorFactor": [
          0.9720470726719795,
          0.42963953162150037,
          0.0,
          1.0
        ],
        "metallicFactor": 0.0,
        "roughnessFactor": 0.5
      }
    }
  ],
  "meshes": [
    {
      "name": "Object_0",
      "primitives": [
        {
          "attributes": {
            "NORMAL": 1,
            "POSITION": 0,
            "TEXCOORD_0": 2
          },
          "indices": 3,
          "material": 0,
          "mode": 4
        }
      ]
    },
    {
      "name": "Object_1",
      "primitives": [
        {
          "attributes": {
            "NORMAL": 5,
            "POSITION": 4,
            "TEXCOORD_0": 6
          },
          "indices": 7,
          "material": 1,
          "mode": 4
        }
      ]
    },
    {
      "name": "Object_2",
      "primitives": [
        {
          "attributes": {
            "NORMAL": 9,
            "POSITION": 8,
            "TEXCOORD_0": 10
          },
          "indices": 11,
          "material": 2,
          "mode": 4
        }
      ]
    },
    {
      "name": "Object_3",
      "primitives": [
        {
          "attributes": {
            "NORMAL": 13,
            "POSITION": 12,
            "TEXCOORD_0": 14
          },
          "indices": 15,
          "material": 3,
          "mode": 4
        }
      ]
    },
    {
      "name": "Object_4",
      "primitives": [
        {
          "attributes": {
            "NORMAL": 17,
            "POSITION": 16,
            "TEXCOORD_0": 18
          },
          "indices": 19,
          "material": 4,
          "mode": 4
        }
      ]
    },
    {
      "name": "Object_5",
      "primitives": [
        {
          "attributes": {
            "NORMAL": 21,
            "POSITION": 20,
            "TEXCOORD_0": 22
          },
          "indices": 23,
          "material": 5,
          "mode": 4
        }
      ]
    },
    {
      "name": "Object_6",
      "primitives": [
        {
          "attributes": {
            "NORMAL": 25,
            "POSITION": 24,
            "TEXCOORD_0": 26
          },
          "indices": 27,
          "material": 5,
          "mode": 4
        }
      ]
    },
    {
      "name": "Object_7",
      "primitives": [
        {
          "attributes": {
            "NORMAL": 29,
            "POSITION": 28,
            "TEXCOORD_0": 30
          },
          "indices": 31,
          "material": 5,
          "mode": 4
        }
      ]
    },
    {
      "name": "Object_8",
      "primitives": [
        {
          "attributes": {
            "NORMAL": 33,
            "POSITION": 32,
            "TEXCOORD_0": 34
          },
          "indices": 35,
          "material": 5,
          "mode": 4
        }
      ]
    },
    {
      "name": "Object_9",
      "primitives": [
        {
          "attributes": {
            "NORMAL": 37,
            "POSITION": 36,
            "TEXCOORD_0": 38
          },
          "indices": 39,
          "material": 5,
          "mode": 4
        }
      ]
    },
    {
      "name": "Object_10",
      "primitives": [
        {
          "attributes": {
            "NORMAL": 41,
            "POSITION": 40,
            "TEXCOORD_0": 42
          },
          "indices": 43,
          "material": 5,
          "mode": 4
        }
      ]
    }
  ],
  "nodes": [
    {
      "children": [
        1
      ],
      "matrix": [
        1.0,
        0.0,
        0.0,
        0.0,
        0.0,
        2.220446049250313e-16,
        -1.0,
        0.0,
        0.0,
        1.0,
        2.220446049250313e-16,
        0.0,
        0.0,
        0.0,
        0.0,
        1.0
      ],
      "name": "Sketchfab_model"
    },
    {
      "children": [
        2
      ],
      "name": "root"
    },
    {
      "children": [
        3,
        9
      ],
      "matrix": [
        1.0,
        0.0,
        0.0,
        0.0,
        0.0,
        2.220446049250313e-16,
        1.0,
        0.0,
        0.0,
        -1.0,
        2.220446049250313e-16,
        0.0,
        0.0,
        0.0,
        0.0,
        1.0
      ],
      "name": "GLTF_SceneRootNode"
    },
    {
      "children": [
        4,
        5,
        6,
        7,
        8
      ],
      "name": "Circle_2",
      "rotation": [
        0.0,
        0.0,
        0.016070175915956497,
        0.9998709559440613
      ],
      "scale": [
        2.6821272373199463,
        2.6821272373199463,
        2.682126998901367
      ],
      "translation": [
        -1.1951401233673096,
        0.0,
        -0.1209980845451355
      ]
    },
    {
      "mesh": 0,
      "name": "Object_4"
    },
    {
      "mesh": 1,
      "name": "Object_5"
    },
    {
      "mesh": 2,
      "name": "Object_6"
    },
    {
      "mesh": 3,
      "name": "Object_7"
    },
    {
      "mesh": 4,
      "name": "Object_8"
    },
    {
      "children": [
        10,
        11,
        12,
        13,
        14,
        15
      ],
      "name": "Sphere_4",
      "scale": [
        0.5223109722137451,
        0.5223109722137451,
        0.5223109722137451
      ],
      "translation": [
        -1.367931604385376,
        1.0997660160064697,
        -0.021847553551197052
      ]
    },
    {
      "mesh": 5,
      "name": "Object_10"
    },
    {
      "mesh": 6,
      "name": "Object_11"
    },
    {
      "mesh": 7,
      "name": "Object_12"
    },
    {
      "mesh": 8,
      "name": "Object_13"
    },
    {
      "mesh": 9,
      "name": "Object_14"
    },
    {
      "mesh": 10,
      "name": "Object_15"
    }
  ],
  "scene": 0,
  "scenes": [
    {
      "name": "Sketchfab_Scene",
      "nodes": [
        0
      ]
    }
  ]
}
