<svg viewBox="0 0 32 32" xmlns="http://www.w3.org/2000/svg"><g data-name="Layer 19"><path d="M24 16.69a.5.5 0 0 0-.11-.55L17.75 10a.5.5 0 0 0-.71.71L22.38 16H12.11a.5.5 0 0 0 0 1h10.27L17 22.33a.5.5 0 1 0 .71.71l6.19-6.19a.5.5 0 0 0 .1-.16Z" fill="#ffffff" class="fill-000000"></path><path d="M15.73 26.33h-5A1.77 1.77 0 0 1 9 24.56V8.43a1.77 1.77 0 0 1 1.77-1.77h5a.5.5 0 0 0 0-1h-5A2.77 2.77 0 0 0 8 8.43v16.13a2.77 2.77 0 0 0 2.77 2.77h5a.5.5 0 1 0 0-1Z" fill="#ffffff" class="fill-000000"></path></g></svg>