<?xml version="1.0" standalone="no"?>
<!DOCTYPE svg PUBLIC "-//W3C//DTD SVG 20010904//EN"
 "http://www.w3.org/TR/2001/REC-SVG-20010904/DTD/svg10.dtd">
<svg version="1.0" xmlns="http://www.w3.org/2000/svg"
 width="1280.000000pt" height="912.000000pt" viewBox="0 0 1280.000000 912.000000"
 preserveAspectRatio="xMidYMid meet">
<metadata>
Created by potrace 1.15, written by Peter Selinger 2001-2017
</metadata>
<g transform="translate(0.000000,912.000000) scale(0.100000,-0.100000)"
fill="#161b6a" stroke="none">
<path d="M6154 7110 c-232 -19 -609 -123 -879 -242 -215 -95 -388 -213 -558
-383 l-107 -108 0 34 c0 19 -6 41 -13 50 -22 29 -53 4 -101 -78 -25 -43 -49
-83 -54 -89 -7 -8 -43 -7 -128 3 -65 8 -133 12 -151 8 -29 -5 -33 -10 -33 -36
0 -22 17 -48 66 -105 36 -41 64 -78 61 -80 -2 -3 -150 36 -328 86 -178 50
-412 116 -519 146 -268 76 -600 157 -750 183 -69 13 -134 27 -145 31 -16 7
-403 31 -487 30 -10 0 -18 -7 -18 -15 0 -8 6 -15 14 -15 85 0 443 -22 481 -30
28 -6 120 -24 205 -41 210 -41 455 -104 960 -247 234 -66 494 -139 578 -163
111 -30 152 -46 152 -57 0 -26 -33 -122 -42 -122 -5 0 -117 29 -251 64 -665
177 -1129 283 -1472 336 -38 6 -97 17 -130 25 -50 12 -153 23 -542 58 -38 3
-55 -20 -20 -27 12 -3 130 -14 262 -26 132 -11 267 -27 300 -35 33 -8 140 -28
237 -45 312 -52 874 -184 1427 -333 157 -42 161 -51 48 -107 -71 -35 -117 -48
-264 -76 -39 -7 -26 -29 17 -30 66 -2 165 -57 207 -115 34 -48 47 -57 57 -41
8 14 -65 103 -107 130 -24 15 -45 31 -48 35 -2 4 25 18 61 31 36 12 98 41 139
65 l74 42 -7 -38 c-3 -21 -13 -80 -21 -132 -14 -94 -38 -141 -71 -141 -7 0
-19 -10 -25 -22 -14 -26 -254 -260 -436 -425 -145 -131 -324 -281 -648 -544
-132 -106 -292 -239 -355 -295 -154 -136 -407 -395 -564 -579 -168 -196 -181
-214 -169 -226 6 -6 43 31 104 103 347 414 547 607 1069 1028 400 323 543 448
863 753 114 109 207 195 208 190 0 -4 0 -96 -1 -203 l-1 -195 -102 -103 c-161
-163 -318 -306 -657 -596 -496 -424 -723 -665 -1023 -1084 -77 -107 -106 -155
-100 -166 6 -10 38 28 121 144 230 321 425 549 642 749 69 64 267 237 440 386
173 148 397 350 497 448 163 160 183 177 187 156 3 -13 10 -77 16 -143 23
-252 92 -596 160 -792 49 -139 170 -376 270 -527 240 -363 521 -649 920 -937
63 -46 141 -103 173 -128 32 -24 82 -59 112 -76 l54 -33 223 5 c526 10 919
-79 1176 -266 108 -79 328 -365 431 -563 125 -238 173 -469 216 -1029 23 -310
16 -281 83 -315 79 -39 195 -46 308 -17 102 26 252 82 381 142 315 148 447
283 446 455 0 99 -54 194 -285 503 -149 199 -222 317 -333 537 -98 192 -168
372 -217 550 -39 145 -49 334 -24 449 31 138 121 286 258 426 103 106 260 245
333 296 l68 48 -6 360 c-10 585 -46 900 -141 1248 -160 582 -601 1163 -1160
1530 -285 186 -540 285 -858 332 -86 13 -586 39 -648 34 -8 0 -56 -4 -106 -8z
m-1583 -694 c5 3 9 -14 9 -37 0 -33 -12 -62 -54 -133 -30 -50 -66 -117 -80
-150 l-26 -58 -37 7 c-46 8 -48 9 -144 117 -97 108 -97 124 0 113 141 -16 197
-20 211 -17 8 1 35 41 60 88 24 47 46 81 48 75 2 -6 8 -9 13 -5z"/>
<path d="M453 7076 c-183 -45 -344 -210 -382 -394 -24 -117 -5 -249 51 -355
62 -116 192 -219 322 -253 78 -21 241 -18 318 6 239 73 394 318 359 563 -29
209 -182 378 -388 432 -68 18 -208 18 -280 1z"/>
<path d="M1346 6661 c-5 -7 3 -25 17 -44 81 -107 76 -195 -17 -306 -27 -32
-34 -47 -26 -55 14 -14 69 49 105 122 46 92 33 173 -43 261 -20 24 -31 31 -36
22z"/>
<path d="M1533 6663 c-8 -3 -3 -22 14 -61 40 -86 41 -132 3 -241 -41 -121 -26
-146 20 -34 46 110 50 179 15 263 -30 72 -35 79 -52 73z"/>
<path d="M1716 6621 c-4 -5 3 -31 15 -58 12 -26 23 -76 26 -110 5 -53 2 -68
-21 -108 -16 -29 -23 -53 -18 -61 6 -10 17 2 41 41 32 52 33 60 29 123 -6 67
-42 182 -58 182 -5 0 -11 -4 -14 -9z"/>
<path d="M8678 6218 c0 -13 -1 -27 -1 -33 0 -5 44 -68 98 -140 372 -495 578
-923 671 -1388 70 -355 52 -645 -61 -997 -38 -119 -132 -359 -192 -490 -39
-85 -38 -134 0 -128 26 4 41 33 136 258 165 397 231 667 231 952 0 361 -109
784 -302 1173 -98 196 -322 540 -490 753 -52 65 -87 81 -90 40z"/>
<path d="M9360 5890 c0 -11 -4 -20 -9 -20 -5 0 33 -87 84 -194 240 -495 341
-798 381 -1141 20 -170 15 -498 -10 -645 -39 -225 -117 -471 -265 -831 -52
-125 -76 -196 -69 -200 6 -4 8 -11 4 -17 -11 -19 27 -23 45 -5 23 25 169 384
234 578 150 445 184 775 124 1199 -47 329 -155 642 -380 1097 -80 161 -102
199 -119 199 -13 0 -20 -7 -20 -20z"/>
<path d="M10180 4150 c0 -7 -8 -9 -20 -5 -11 4 -20 2 -20 -4 0 -6 4 -11 9 -11
5 0 7 -8 4 -18 -3 -13 25 -38 114 -102 444 -320 722 -583 980 -927 223 -299
368 -576 499 -957 47 -139 127 -403 164 -543 6 -24 16 -43 22 -43 6 0 17 -8
24 -18 12 -16 13 -15 14 5 0 12 5 23 12 25 14 5 -63 290 -144 533 -184 553
-417 950 -805 1369 -163 177 -411 388 -698 597 -156 114 -155 113 -155 99z"/>
<path d="M11443 3698 c1 -28 10 -41 55 -78 114 -93 318 -287 403 -384 261
-295 392 -566 518 -1071 48 -192 100 -428 136 -620 32 -171 33 -175 50 -175 7
0 16 -6 18 -12 3 -8 6 -6 6 4 1 9 8 21 16 25 13 8 8 45 -40 283 -193 955 -338
1295 -720 1689 -161 166 -396 373 -410 361 -7 -6 -16 -5 -22 1 -8 8 -11 1 -10
-23z"/>
<path d="M10005 3453 c0 -28 27 -59 196 -230 212 -216 299 -315 433 -496 313
-422 600 -1067 755 -1697 49 -197 131 -617 131 -666 0 -13 5 -24 11 -24 7 0
18 -8 25 -17 13 -17 13 -17 14 0 0 10 7 20 15 23 9 4 13 15 10 32 -121 700
-226 1081 -433 1557 -241 559 -472 897 -937 1373 -131 134 -178 177 -197 177
-21 0 -24 -4 -23 -32z"/>
</g>
</svg>
